<svg xmlns="http://www.w3.org/2000/svg" width="178.5" height="123.75" viewBox="0 0 178.5 123.75"><g transform="translate(112.312 78.75)"><path d="M344.651,304.4a22.5,22.5,0,1,0,22.5,22.5A22.525,22.525,0,0,0,344.651,304.4Zm0,33.75A11.25,11.25,0,1,1,355.9,326.9,11.261,11.261,0,0,1,344.651,338.153Z" transform="translate(-322.151 -304.403)"/></g><g transform="translate(35.437 78.75)"><path d="M124.147,304.4a22.5,22.5,0,1,0,22.5,22.5A22.525,22.525,0,0,0,124.147,304.4Zm0,33.75A11.25,11.25,0,1,1,135.4,326.9,11.262,11.262,0,0,1,124.147,338.153Z" transform="translate(-101.647 -304.403)"/></g><g transform="translate(115.312 11.25)"><path d="M365.408,113.888a5.628,5.628,0,0,0-5.027-3.1H330.756v11.25h26.156L372.229,152.5l10.054-5.055Z" transform="translate(-330.756 -110.79)"/></g><g transform="translate(75.375 95.813)"><rect width="42.562" height="11.25"/></g><g transform="translate(15.938 95.813)"><path d="M70.84,353.345H51.34a5.625,5.625,0,1,0,0,11.25h19.5a5.625,5.625,0,1,0,0-11.25Z" transform="translate(-45.715 -353.345)"/></g><g transform="translate(15.938)"><path d="M207.1,139.946,196.032,125.7a5.617,5.617,0,0,0-4.442-2.175H150.715V84.146a5.624,5.624,0,0,0-5.625-5.625H51.34a5.625,5.625,0,1,0,0,11.25h88.125v39.375a5.624,5.624,0,0,0,5.625,5.625h43.746l8.192,10.552v29.01H181.465a5.625,5.625,0,0,0,0,11.25h21.187a5.625,5.625,0,0,0,5.625-5.625V143.4A5.633,5.633,0,0,0,207.1,139.946Z" transform="translate(-45.715 -78.521)"/></g><g transform="translate(9.188 67.313)"><path d="M57.853,271.6H31.978a5.625,5.625,0,0,0,0,11.25H57.853a5.625,5.625,0,0,0,0-11.25Z" transform="translate(-26.353 -271.597)"/></g><g transform="translate(0 45.187)"><path d="M53.625,208.134h-48a5.625,5.625,0,0,0,0,11.25h48a5.625,5.625,0,0,0,0-11.25Z" transform="translate(0 -208.134)"/></g><g transform="translate(9.188 23.062)"><path d="M79.978,144.672h-48a5.625,5.625,0,1,0,0,11.25h48a5.625,5.625,0,1,0,0-11.25Z" transform="translate(-26.353 -144.672)"/></g></svg>