<svg xmlns="http://www.w3.org/2000/svg" width="123.75" height="123.75" viewBox="0 0 123.75 123.75"><g transform="translate(0 0)"><path d="M127.453,45.574a1.819,1.819,0,0,0-1.954.01c-.189.122-10.1,6.527-22.888,16.459,5.276-28.164,4.117-45.2,4.06-45.945a1.822,1.822,0,0,0-2.957-1.287c-.426.341-10.078,8.162-23.485,24.738-1.595-5.957-3.173-11.034-4.564-15.142A142.576,142.576,0,0,0,68.044,5.53a1.823,1.823,0,0,0-3.227,0,142.572,142.572,0,0,0-7.622,18.877c-1.392,4.105-2.97,9.185-4.564,15.142-13.4-16.576-23.057-24.4-23.483-24.738A1.822,1.822,0,0,0,26.19,16.1c-.055.749-1.215,17.782,4.06,45.945C17.462,52.112,7.553,45.706,7.363,45.584A1.823,1.823,0,0,0,4.57,47.338a159.65,159.65,0,0,0,11.307,40.2c8.267,18.8,19.4,31.342,32.713,37.115a1.77,1.77,0,0,0,.37.208,1.812,1.812,0,0,0,.359.1,44.506,44.506,0,0,0,17.112,3.344c21.338,0,38.826-14.1,50.554-40.772a159.651,159.651,0,0,0,11.307-40.2,1.824,1.824,0,0,0-.84-1.764Zm-24.3-25.433c.065,6.931-.416,23.054-4.931,45.362-3.53,2.825-7.205,5.876-10.905,9.1A300.231,300.231,0,0,0,81.37,43.959,205.252,205.252,0,0,1,103.153,20.14ZM66.431,10.647C70.142,18.966,79.316,42.2,84.041,77.5A225.708,225.708,0,0,0,66.431,94.99,225.7,225.7,0,0,0,48.821,77.5c4.718-35.267,13.9-58.529,17.61-66.856ZM29.708,20.138A204.871,204.871,0,0,1,51.492,43.959,300.184,300.184,0,0,0,45.545,74.6c-3.7-3.227-7.376-6.275-10.905-9.1-4.519-22.313-5-38.435-4.931-45.364Zm-20.88,30.8c9.415,6.4,36.185,25.392,55.2,46.84-6.916,8.119-12.04,15.822-15.267,22.955-27.869-13.277-37.547-56.346-39.929-69.8Zm57.6,73.724a40.918,40.918,0,0,1-14.319-2.512c3.243-7.142,8.5-14.934,15.693-23.212,19.055-21.912,46.645-41.49,56.231-48-2.823,15.974-15.922,73.727-57.605,73.727Z" transform="translate(-4.556 -4.556)"/><path d="M92.131,100.9a1.817,1.817,0,0,0,1.37-.619c.946-1.078,1.861-2.209,2.718-3.358A1.822,1.822,0,1,0,93.3,94.747c-.8,1.073-1.654,2.127-2.538,3.133a1.821,1.821,0,0,0,1.369,3.019Z" transform="translate(-1.049 -0.9)"/><path d="M72.953,113a1.821,1.821,0,0,0,2.41.913,56.178,56.178,0,0,0,13.582-8.721,1.823,1.823,0,0,0-2.394-2.75,52.507,52.507,0,0,1-12.69,8.149A1.822,1.822,0,0,0,72.953,113Z" transform="translate(-1.765 -0.57)"/></g></svg>