<svg id="leaves-of-a-plant" xmlns="http://www.w3.org/2000/svg" width="74.949" height="75.162" viewBox="0 0 74.949 75.162">
  <path id="Path_8" data-name="Path 8" d="M45.826,37.753a27.183,27.183,0,0,0-4.96,6.569,44.9,44.9,0,0,0-5.511-12.777C44.47,1.091.046,0,.046,0s1.3,38.063,24.5,37.189a37.306,37.306,0,0,0-.994-7.542c-.361-1.576-.791-3.078-1.235-4.464a58.108,58.108,0,0,0-3.158-7.863c1.691,2.272,3.189,4.441,4.512,6.479a91.145,91.145,0,0,1,8.192,15.328c2.851,6.125,5.412,16.2,5.412,32.663a3.372,3.372,0,1,0,6.744,0,131.387,131.387,0,0,0-.723-14.319,33.371,33.371,0,0,1,4.377-11.435,72.6,72.6,0,0,1,5.877-9.389,40.657,40.657,0,0,1,8.853-8.99s-6.98,7.726-7.431,15.29C74.246,43.951,75,13.62,75,13.62S39.713,14.824,45.826,37.753Z" transform="translate(-0.046 0)"/>
</svg>
