<svg xmlns="http://www.w3.org/2000/svg" width="20" height="25.72" viewBox="0 0 20 25.72">
  <path id="location_outline" d="M15,28.716a42.537,42.537,0,0,1-5-5.044c-2.286-2.73-5-6.8-5-10.67a10,10,0,1,1,20,0c0,3.874-2.714,7.94-5,10.67A42.538,42.538,0,0,1,15,28.716ZM15,5.859A7.151,7.151,0,0,0,7.857,13c0,1.666.753,4.55,4.336,8.837A39.9,39.9,0,0,0,15,24.859a40.173,40.173,0,0,0,2.809-3.016C21.39,17.55,22.143,14.666,22.143,13A7.151,7.151,0,0,0,15,5.859Zm0,11.429a4.286,4.286,0,1,1,3.03-1.255A4.286,4.286,0,0,1,15,17.287Z" transform="translate(-5 -2.996)"/>
</svg>
