<svg xmlns="http://www.w3.org/2000/svg" width="20" height="24.859" viewBox="0 0 20 24.859">
  <g id="lock" transform="translate(-50.04)">
    <path id="Path_21" data-name="Path 21" d="M69.557,11.258c-.064-.023-.681-.24-1.7-.5V7.813a7.813,7.813,0,0,0-15.627,0v2.942c-1.023.262-1.639.48-1.7.5l-.483.173V23.186l.483.173a30.957,30.957,0,0,0,9.517,1.5,30.952,30.952,0,0,0,9.517-1.5l.483-.173V11.431ZM53.683,7.813a6.357,6.357,0,1,1,12.714,0v2.606c-.585-.12-1.236-.237-1.942-.339V7.813a4.415,4.415,0,1,0-8.829,0V10.08c-.706.1-1.358.219-1.942.339ZM63,9.9c-.926-.091-1.919-.147-2.958-.147s-2.032.056-2.958.147V7.813a2.958,2.958,0,1,1,5.916,0Zm5.585,12.238A30.718,30.718,0,0,1,60.04,23.4a30.716,30.716,0,0,1-8.543-1.26V12.474a29.6,29.6,0,0,1,17.087,0Z"/>
    <path id="Path_22" data-name="Path 22" d="M211,286.165a2.188,2.188,0,0,0,1.457,2.06v2.068h1.457v-2.068a2.185,2.185,0,1,0-2.913-2.06Zm2.913,0a.728.728,0,1,1-.728-.728A.729.729,0,0,1,213.913,286.165Z" transform="translate(-153.145 -270.192)"/>
  </g>
</svg>
