<svg xmlns="http://www.w3.org/2000/svg" width="19.561" height="19.561" viewBox="0 0 19.561 19.561">
  <g id="number-sign" transform="translate(-0.001)">
    <g id="Group_55" data-name="Group 55" transform="translate(0.001)">
      <rect id="Rectangle_67" data-name="Rectangle 67" width="2.493" height="2.493" transform="translate(8.534 8.534)"/>
      <path id="Path_25" data-name="Path 25" d="M18.57,0H.993A.992.992,0,0,0,0,.992V18.568a.992.992,0,0,0,.992.992H18.569a.992.992,0,0,0,.992-.992V.992A.992.992,0,0,0,18.57,0ZM15,8.311a.223.223,0,0,1-.223.223H12.812v2.493h1.961A.223.223,0,0,1,15,11.25v1.338a.223.223,0,0,1-.223.223H12.812v1.961a.223.223,0,0,1-.223.223H11.251a.223.223,0,0,1-.223-.223V12.811H8.535v1.961a.223.223,0,0,1-.223.223H6.974a.223.223,0,0,1-.223-.223V12.811H4.79a.223.223,0,0,1-.223-.223V11.25a.223.223,0,0,1,.223-.223H6.751V8.534H4.79a.223.223,0,0,1-.223-.223V6.973A.223.223,0,0,1,4.79,6.75H6.751V4.789a.223.223,0,0,1,.223-.223H8.312a.223.223,0,0,1,.223.223V6.75h2.494V4.789a.223.223,0,0,1,.223-.223h1.338a.223.223,0,0,1,.223.223V6.75h1.961A.223.223,0,0,1,15,6.973V8.311Z" transform="translate(-0.001)"/>
    </g>
  </g>
</svg>
