<?xml version="1.0" encoding="iso-8859-1"?>
<!-- Generator: Adobe Illustrator 19.0.0, SVG Export Plug-In . SVG Version: 6.00 Build 0)  -->
<svg version="1.1" id="Capa_1" xmlns="http://www.w3.org/2000/svg" xmlns:xlink="http://www.w3.org/1999/xlink" x="0px" y="0px"
	 viewBox="0 0 512.002 512.002" style="enable-background:new 0 0 512.002 512.002;" xml:space="preserve">
<g>
	<g>
		<path d="M507.705,203.728l-61.149-28.875l61.149-28.876c2.624-1.239,4.298-3.881,4.298-6.783c0-2.902-1.674-5.544-4.298-6.783
			L334.683,50.709c-2.029-0.958-4.378-0.958-6.407,0l-72.31,34.147l-72.31-34.147c-2.028-0.958-4.379-0.958-6.406,0
			c0,0-30.22,14.27-30.389,14.35c-8.707,4.112-2.429,17.737,6.406,13.566l27.187-12.838L238.4,93.15L82.946,166.558l-57.946-27.364
			c0,0,98.864-46.685,99.396-46.936c8.615-4.068,2.466-17.755-6.404-13.567c0,0-113.393,53.546-113.761,53.72
			c-5.649,2.667-5.636,10.905-0.001,13.566l61.149,28.876c0,0-61.018,28.814-61.148,28.875c-5.621,2.654-5.629,10.908-0.001,13.566
			l71.214,33.629v121.884c0,2.902,1.674,5.544,4.299,6.783l173.021,81.703c0.025,0.012,0.052,0.02,0.077,0.031
			c0.08,0.037,0.162,0.065,0.243,0.099c0.221,0.092,0.444,0.175,0.67,0.245c0.103,0.032,0.206,0.06,0.31,0.087
			c0.22,0.058,0.442,0.104,0.665,0.142c0.096,0.016,0.191,0.036,0.287,0.048c0.316,0.04,0.633,0.066,0.951,0.066
			c0.317,0,0.634-0.026,0.95-0.066c0.097-0.013,0.192-0.032,0.288-0.048c0.223-0.038,0.444-0.083,0.664-0.142
			c0.104-0.027,0.208-0.056,0.312-0.087c0.227-0.07,0.45-0.153,0.671-0.246c0.08-0.034,0.161-0.062,0.24-0.098
			c0.026-0.012,0.052-0.02,0.078-0.032l173.021-81.703c2.624-1.239,4.298-3.881,4.298-6.783V250.923c0,0,70.942-33.5,71.213-33.628
			C513.353,214.626,513.338,206.39,507.705,203.728z M331.479,65.787l155.454,73.408l-57.946,27.364L273.534,93.15L331.479,65.787z
			 M25.001,210.511l57.946-27.363L238.4,256.556l-57.946,27.363L25.001,210.511z M248.466,442.673L248.466,442.673l-158.019-74.62
			V258.008c0,0,86.786,40.982,86.804,40.99c1.993,0.941,4.411,0.943,6.406,0l64.809-30.604V442.673z M255.966,248.261
			l-155.454-73.408l155.454-73.408l155.454,73.408L255.966,248.261z M263.467,442.672V268.394l64.809,30.604
			c2.009,0.948,4.398,0.935,6.406,0l86.803-40.99v110.046h0.001L263.467,442.672z M331.479,283.919l-57.946-27.363l155.454-73.408
			l57.946,27.363L331.479,283.919z"/>
	</g>
</g>
<g>
</g>
<g>
</g>
<g>
</g>
<g>
</g>
<g>
</g>
<g>
</g>
<g>
</g>
<g>
</g>
<g>
</g>
<g>
</g>
<g>
</g>
<g>
</g>
<g>
</g>
<g>
</g>
<g>
</g>
</svg>
