<svg xmlns="http://www.w3.org/2000/svg" width="157.41" height="123.75" viewBox="0 0 157.41 123.75"><g transform="translate(0 0)"><path d="M12.525,86.116c-.479.382-.951.778-1.43,1.145.9.075,1.8.157,2.687.225,7.643,3.323,17.71,1.909,21.992,11.932.846,1.976,3.72,6.684,6.527,3.758,6.392-6.707,9.581-1.25,15.053,1.347,7.126,3.4,14.626,5.307,18.923,12.71.741,1.258,2.538,2.283,3.705.966,4.439-5.015,6.654-.988,9.02,2.073,1.811,2.335,3.279,2.373,6.392,1.594,10.449-2.717,21.086-7.575,31.551,1.265,2.463,2.081,7.021,4.169,11.774,1.849-3.937-6.834-2.44-12.747,3.915-16.939,13.638-8.937,20.7-19.215,8.488-34.44-3.091-3.847,3.773-9.252-.9-12.171-7.964-4.963-3.975-7.193,1.28-9.963,1.557-.823,3.338-1.946,4.117-3.391,2.672-5.1-9.2-33.542-14.619-35.5a7.15,7.15,0,0,0-3.076-.659c-19.32,2.657-38.7-3.69-58.034.337-3.428.726-8.848-.951-8.144-3.353C74.174.618,68.014,2.819,64.728,2.43A32.982,32.982,0,0,0,46.591,5.918C34.15,11.951,21.755,18.209,7.952,20.365c-6.243.973-5.629,6.565-5.345,9.17C3.2,34.7,5.257,39.34.451,43.636c-1.235,1.123.359,2.552,1.243,3.66C10.774,58.712,9.217,73.106,12.525,86.116Z" transform="translate(0 -2.248)"/></g></svg>