<svg xmlns="http://www.w3.org/2000/svg" width="38.795" height="29.097" viewBox="0 0 38.795 29.097"><g transform="translate(0 -63.997)"><g transform="translate(0 75.312)"><g transform="translate(0)"><path d="M38.636,213.662a.807.807,0,0,0-.648-.327H.809a.815.815,0,0,0-.65.325.807.807,0,0,0-.124.714l4.158,13.861a4.018,4.018,0,0,0,3.871,2.881H30.733a4.015,4.015,0,0,0,3.87-2.879l4.158-13.861A.805.805,0,0,0,38.636,213.662Zm-5.58,14.11a2.414,2.414,0,0,1-2.324,1.728H8.063a2.411,2.411,0,0,1-2.323-1.728l-3.846-12.82H36.9Z" transform="translate(0 -213.335)"/></g></g><g transform="translate(9.699 63.997)"><g transform="translate(0 0)"><path d="M135.678,64.1a.809.809,0,0,0-1.1.3L128.108,75.72a.809.809,0,0,0,.3,1.1.8.8,0,0,0,.4.107.81.81,0,0,0,.7-.407l6.466-11.315A.809.809,0,0,0,135.678,64.1Z" transform="translate(-128.002 -63.997)"/></g></g><g transform="translate(21.013 63.997)"><g transform="translate(0 0)"><path d="M285.3,75.72,278.835,64.4a.809.809,0,0,0-1.406.8l6.466,11.315a.81.81,0,0,0,.7.407.8.8,0,0,0,.4-.107A.806.806,0,0,0,285.3,75.72Z" transform="translate(-277.322 -63.997)"/></g></g></g></svg>